<svg xmlns="http://www.w3.org/2000/svg" viewBox="0 0 224 32" width="224" height="32" shape-rendering="crispEdges">
  <defs>
    <filter id="glow-architect">
      <feDropShadow dx="0" dy="0" stdDeviation="1.5" flood-color="#a855f7" flood-opacity="0.8"/>
    </filter>
  </defs>

  <!-- Frame 0: Idle Down -->
  <g transform="translate(0, 0)">
    <ellipse cx="16" cy="28" rx="8" ry="3" fill="#000000" opacity="0.3"/>
    <rect x="10" y="14" width="12" height="11" rx="2" fill="#a855f7"/>
    <rect x="12" y="16" width="8" height="7" rx="1" fill="#6b21a8"/>
    <rect x="10" y="24" width="4" height="4" rx="1" fill="#1e293b"/>
    <rect x="18" y="24" width="4" height="4" rx="1" fill="#1e293b"/>
    <circle cx="16" cy="11" r="7" fill="#fde047"/>
    <rect x="13" y="10" width="2" height="3" fill="#0f172a"/>
    <rect x="17" y="10" width="2" height="3" fill="#0f172a"/>
    <polygon points="16,1 10,7 22,7" fill="#6b21a8" transform="translate(0, 0)"/>
            <polygon points="16,2 12,6 20,6" fill="#a855f7" transform="translate(0, 0)"/>
  </g>

  <!-- Frame 1: Walk Down 1 -->
  <g transform="translate(32, 0)">
    <ellipse cx="16" cy="28" rx="8" ry="3" fill="#000000" opacity="0.3"/>
    <rect x="10" y="13" width="12" height="11" rx="2" fill="#a855f7"/>
    <rect x="12" y="15" width="8" height="7" rx="1" fill="#6b21a8"/>
    <rect x="9" y="23" width="5" height="5" rx="1" fill="#1e293b"/>
    <rect x="18" y="24" width="4" height="3" rx="1" fill="#1e293b"/>
    <circle cx="16" cy="10" r="7" fill="#fde047"/>
    <rect x="13" y="9" width="2" height="3" fill="#0f172a"/>
    <rect x="17" y="9" width="2" height="3" fill="#0f172a"/>
    <polygon points="16,1 10,7 22,7" fill="#6b21a8" transform="translate(0, -1)"/>
            <polygon points="16,2 12,6 20,6" fill="#a855f7" transform="translate(0, -1)"/>
  </g>

  <!-- Frame 2: Walk Down 2 -->
  <g transform="translate(64, 0)">
    <ellipse cx="16" cy="28" rx="8" ry="3" fill="#000000" opacity="0.3"/>
    <rect x="10" y="13" width="12" height="11" rx="2" fill="#a855f7"/>
    <rect x="12" y="15" width="8" height="7" rx="1" fill="#6b21a8"/>
    <rect x="10" y="24" width="4" height="3" rx="1" fill="#1e293b"/>
    <rect x="18" y="23" width="5" height="5" rx="1" fill="#1e293b"/>
    <circle cx="16" cy="10" r="7" fill="#fde047"/>
    <rect x="13" y="9" width="2" height="3" fill="#0f172a"/>
    <rect x="17" y="9" width="2" height="3" fill="#0f172a"/>
    <polygon points="16,1 10,7 22,7" fill="#6b21a8" transform="translate(0, -1)"/>
            <polygon points="16,2 12,6 20,6" fill="#a855f7" transform="translate(0, -1)"/>
  </g>

  <!-- Frame 3: Walk Up -->
  <g transform="translate(96, 0)">
    <ellipse cx="16" cy="28" rx="8" ry="3" fill="#000000" opacity="0.3"/>
    <rect x="10" y="14" width="12" height="11" rx="2" fill="#a855f7"/>
    <rect x="10" y="24" width="4" height="4" rx="1" fill="#1e293b"/>
    <rect x="18" y="24" width="4" height="4" rx="1" fill="#1e293b"/>
    <circle cx="16" cy="11" r="7" fill="#eab308"/>
    <rect x="11" y="6" width="10" height="7" rx="2" fill="#6b21a8"/>
    <polygon points="16,1 10,7 22,7" fill="#6b21a8"/>
  </g>

  <!-- Frame 4: Walk Left -->
  <g transform="translate(128, 0)">
    <ellipse cx="16" cy="28" rx="7" ry="3" fill="#000000" opacity="0.3"/>
    <rect x="11" y="14" width="10" height="11" rx="2" fill="#a855f7"/>
    <rect x="9" y="24" width="5" height="4" rx="1" fill="#1e293b"/>
    <rect x="17" y="24" width="4" height="4" rx="1" fill="#1e293b"/>
    <circle cx="15" cy="11" r="7" fill="#fde047"/>
    <rect x="11" y="10" width="2" height="3" fill="#0f172a"/>
    <polygon points="15,1 9,7 21,7" fill="#6b21a8"/>
  </g>

  <!-- Frame 5: Walk Right -->
  <g transform="translate(160, 0)">
    <ellipse cx="16" cy="28" rx="7" ry="3" fill="#000000" opacity="0.3"/>
    <rect x="11" y="14" width="10" height="11" rx="2" fill="#a855f7"/>
    <rect x="11" y="24" width="4" height="4" rx="1" fill="#1e293b"/>
    <rect x="18" y="24" width="5" height="4" rx="1" fill="#1e293b"/>
    <circle cx="17" cy="11" r="7" fill="#fde047"/>
    <rect x="19" y="10" width="2" height="3" fill="#0f172a"/>
    <polygon points="17,1 11,7 23,7" fill="#6b21a8"/>
  </g>

  <!-- Frame 6: Working Pose -->
  <g transform="translate(192, 0)">
    <ellipse cx="16" cy="28" rx="10" ry="4" fill="#a855f7" opacity="0.4" filter="url(#glow-architect)"/>
    <rect x="10" y="14" width="12" height="11" rx="2" fill="#a855f7"/>
    <rect x="12" y="16" width="8" height="7" rx="1" fill="#d8b4fe"/>
    <rect x="10" y="24" width="4" height="4" rx="1" fill="#1e293b"/>
    <rect x="18" y="24" width="4" height="4" rx="1" fill="#1e293b"/>
    <circle cx="16" cy="11" r="7" fill="#fde047"/>
    <rect x="13" y="10" width="2" height="2" fill="#0f172a"/>
    <rect x="17" y="10" width="2" height="2" fill="#0f172a"/>
    <polygon points="16,1 10,7 22,7" fill="#6b21a8" transform="translate(0, 0)"/>
            <polygon points="16,2 12,6 20,6" fill="#a855f7" transform="translate(0, 0)"/>
    <text x="16" y="5" font-size="8" text-anchor="middle" fill="#ffffff">⚡</text>
    <circle cx="6" cy="10" r="1.5" fill="#d8b4fe"/>
    <circle cx="26" cy="12" r="2" fill="#d8b4fe"/>
  </g>
</svg>